<?xml version="1.0" standalone="no"?>
<!DOCTYPE svg PUBLIC "-//W3C//DTD SVG 20010904//EN"
 "http://www.w3.org/TR/2001/REC-SVG-20010904/DTD/svg10.dtd">
<svg version="1.0" xmlns="http://www.w3.org/2000/svg"
 width="1200.000000pt" height="1200.000000pt" viewBox="0 0 1200.000000 1200.000000"
 preserveAspectRatio="xMidYMid meet">
<metadata>
Created by potrace 1.16, written by Peter Selinger 2001-2019
</metadata>
<g transform="translate(0.000000,1200.000000) scale(0.100000,-0.100000)"
fill="#ffffff" stroke="none">
<path d="M0 6000 l0 -6000 6000 0 6000 0 0 6000 0 6000 -6000 0 -6000 0 0
-6000z m6429 5018 c-17 -32 -567 -995 -592 -1037 -12 -19 -16 -31 -9 -27 6 4
289 250 628 546 339 297 623 540 631 540 9 0 902 -885 1984 -1967 l1970 -1967
-548 -548 c-301 -301 -544 -548 -540 -548 5 0 246 102 535 226 290 124 533
228 540 231 9 4 12 -72 12 -358 l0 -364 -992 -992 -993 -993 -683 -7 -684 -6
-1969 1969 -1969 1969 0 680 0 680 997 997 998 998 348 0 348 0 -12 -22z
m-977 -5565 c142 -142 258 -262 258 -268 0 -5 -84 -93 -185 -195 l-185 -185
-267 267 -267 267 184 185 c102 102 189 186 195 186 5 0 126 -116 267 -257z
m-572 -1107 l-195 -195 -262 262 c-145 144 -263 266 -263 271 0 4 86 94 190
199 l190 192 267 -267 267 -267 -194 -195z m-728 -193 c142 -142 258 -262 258
-268 0 -13 -372 -385 -385 -385 -5 0 -128 118 -273 263 l-262 262 196 193
c108 105 199 192 203 192 3 0 122 -116 263 -257z m-661 -658 l264 -266 -194
-196 -193 -196 -266 266 -265 265 194 196 c107 108 194 196 194 196 1 0 120
-119 266 -265z m-584 -1122 l-197 -198 -267 268 -268 267 198 197 198 197 267
-267 266 -266 -197 -198z m-727 -198 l264 -265 -36 -37 c-31 -32 -118 -182
-529 -909 l-29 -52 -371 93 c-203 51 -373 95 -376 98 -3 3 -47 172 -98 376
l-92 370 116 65 c64 35 224 124 356 196 132 73 283 156 335 186 53 29 116 73
140 98 25 24 47 45 50 45 3 1 124 -118 270 -264z"/>
<path d="M7480 8074 c-410 -95 -769 -178 -797 -184 -29 -6 -53 -15 -53 -19 0
-5 89 -107 198 -227 309 -344 294 -326 280 -335 -7 -5 -341 -131 -741 -281
l-729 -273 696 -3 c383 -1 1009 -1 1390 0 l695 3 -264 275 -263 275 715 5 716
5 -104 91 c-57 50 -167 145 -244 211 -77 66 -273 236 -435 377 -162 140 -299
255 -305 255 -5 -1 -345 -79 -755 -175z"/>
</g>
</svg>
